<!DOCTYPE svg PUBLIC "-//W3C//DTD SVG 1.1//EN" "http://www.w3.org/Graphics/SVG/1.1/DTD/svg11.dtd">
<!-- Uploaded to: SVG Repo, www.svgrepo.com, Transformed by: SVG Repo Mixer Tools -->
<svg width="800px" height="800px" viewBox="0 -0.5 25 25" fill="none" xmlns="http://www.w3.org/2000/svg" stroke="#ffffff">
<g id="SVGRepo_bgCarrier" stroke-width="0"/>
<g id="SVGRepo_tracerCarrier" stroke-linecap="round" stroke-linejoin="round"/>
<g id="SVGRepo_iconCarrier"> <path fill-rule="evenodd" clip-rule="evenodd" d="M6.67988 8.112C4.75244 10.9967 5.22876 14.8579 7.79944 17.1877C10.3701 19.5175 14.2595 19.6128 16.9412 17.4118C19.623 15.2107 20.2879 11.3775 18.5041 8.40182C16.7203 5.42618 13.026 4.20607 9.82088 5.534C8.542 6.06385 7.44894 6.96099 6.67988 8.112Z" stroke="#000000" stroke-width="1.5" stroke-linecap="round" stroke-linejoin="round"/> <path fill-rule="evenodd" clip-rule="evenodd" d="M9.43889 9.18204C9.87889 8.71804 10.0389 8.58804 10.2219 8.52804C10.3527 8.4933 10.4901 8.49124 10.6219 8.52204C10.7939 8.57204 10.8389 8.61004 11.4029 9.17204C11.9029 9.66604 11.9479 9.71904 11.9949 9.81604C12.086 9.9857 12.1002 10.1862 12.0339 10.367C11.9849 10.504 11.9129 10.595 11.6129 10.897L11.4129 11.097C11.36 11.1499 11.3478 11.231 11.3829 11.297C11.8197 12.0406 12.4393 12.6602 13.1829 13.097C13.2684 13.1425 13.3734 13.1275 13.4429 13.06L13.6319 12.874C13.7477 12.7526 13.8706 12.6381 13.9999 12.531C14.2024 12.4073 14.4541 12.396 14.6669 12.501C14.7669 12.55 14.8059 12.582 15.3179 13.092C15.8449 13.617 15.8599 13.634 15.9179 13.754C16.028 13.9532 16.028 14.1949 15.9179 14.394C15.8609 14.506 15.8269 14.547 15.5299 14.85C15.3509 15.033 15.1829 15.202 15.1559 15.225C14.9113 15.4276 14.5975 15.5269 14.2809 15.502C13.7019 15.4493 13.1414 15.2705 12.6389 14.978C11.5255 14.3881 10.5776 13.5286 9.88189 12.478C9.73143 12.2584 9.59772 12.0277 9.48189 11.788C9.16868 11.2512 9.00694 10.6395 9.01389 10.018C9.03549 9.69304 9.18904 9.39101 9.43889 9.18204Z" stroke="#000000" stroke-width="1.5" stroke-linecap="round" stroke-linejoin="round"/> </g>
</svg>